<?xml version="1.0" encoding="UTF-8" standalone="no"?>
<!-- Created with Inkscape (http://www.inkscape.org/) -->

<svg
   xmlns:dc="http://purl.org/dc/elements/1.1/"
   xmlns:cc="http://creativecommons.org/ns#"
   xmlns:rdf="http://www.w3.org/1999/02/22-rdf-syntax-ns#"
   xmlns:svg="http://www.w3.org/2000/svg"
   xmlns="http://www.w3.org/2000/svg"
   xmlns:sodipodi="http://sodipodi.sourceforge.net/DTD/sodipodi-0.dtd"
   xmlns:inkscape="http://www.inkscape.org/namespaces/inkscape"
   width="180mm"
   height="140mm"
   viewBox="0 0 637.79527 496.06298"
   id="svg2"
   version="1.1"
   inkscape:version="0.91 r13725"
   sodipodi:docname="drawing (1).svg">
  <defs
     id="defs4" />
  <sodipodi:namedview
     id="base"
     pagecolor="#ffffff"
     bordercolor="#666666"
     borderopacity="1.0"
     inkscape:pageopacity="0.0"
     inkscape:pageshadow="2"
     inkscape:zoom="0.5"
     inkscape:cx="307.90511"
     inkscape:cy="307.1007"
     inkscape:document-units="mm"
     inkscape:current-layer="layer1"
     showgrid="false"
     inkscape:snap-bbox="true"
     inkscape:bbox-paths="true"
     inkscape:bbox-nodes="true"
     inkscape:snap-bbox-edge-midpoints="true"
     inkscape:snap-bbox-midpoints="true"
     inkscape:object-paths="true"
     inkscape:snap-intersection-paths="true"
     inkscape:snap-smooth-nodes="true"
     inkscape:object-nodes="true"
     inkscape:snap-midpoints="true"
     inkscape:window-width="1276"
     inkscape:window-height="755"
     inkscape:window-x="4"
     inkscape:window-y="1"
     inkscape:window-maximized="1"
     inkscape:snap-global="false"
     inkscape:measure-start="346,353"
     inkscape:measure-end="379,353"
     inkscape:snap-object-midpoints="true"
     inkscape:snap-center="true"
     showguides="true"
     inkscape:guide-bbox="true"
     units="mm"
     width="150mm" />
  <metadata
     id="metadata7">
    <rdf:RDF>
      <cc:Work
         rdf:about="">
        <dc:format>image/svg+xml</dc:format>
        <dc:type
           rdf:resource="http://purl.org/dc/dcmitype/StillImage" />
        <dc:title></dc:title>
      </cc:Work>
    </rdf:RDF>
  </metadata>
  <g
     inkscape:label="Layer 1"
     inkscape:groupmode="layer"
     id="layer1"
     transform="translate(0,-556.29926)"
     style="display:inline">
    <path
       style="color:#000000;clip-rule:nonzero;display:inline;overflow:visible;visibility:visible;opacity:1;isolation:auto;mix-blend-mode:normal;color-interpolation:sRGB;color-interpolation-filters:linearRGB;solid-color:#000000;solid-opacity:1;fill:none;fill-opacity:1;fill-rule:nonzero;stroke:#000000;stroke-width:0.70866144;stroke-linecap:butt;stroke-linejoin:miter;stroke-miterlimit:4;stroke-dasharray:none;stroke-dashoffset:0;stroke-opacity:1;color-rendering:auto;image-rendering:auto;shape-rendering:auto;text-rendering:auto;enable-background:accumulate"
       d="m 43.183594,791.98842 0,34.68946 10.576172,0 0,30.01172 -10.576172,0 0,35.4414 10.585937,0 0,30.03125 -10.585937,0 0,35.45117 10.566406,0 0,29.99219 -10.566406,0 0,34.69919 28.701172,0 0,-10.5488 29.974604,0 0,10.5488 29.53516,0 0,-10.4941 29.86914,0 0,10.4941 29.48633,0 0,-10.5976 30.07227,0 0,10.5976 29.40429,0 0,-10.5879 30.03125,0 0,10.5879 28.67383,0 0,-34.67966 -10.58789,0 0,-30.03125 10.58789,0 0,-35.4414 -10.57617,0 0,-30.01172 10.57617,0 0,-35.44141 -10.58789,0 0,-30.03125 10.58789,0 0,-34.67969 -28.63086,0 0,10.61914 -30.11719,0 0,-10.61914 -29.33984,0 0,10.62891 -30.11719,0 0,-10.62891 -29.33984,0 0,10.63086 -30.11719,0 0,-10.63086 -29.40039,0 0,10.56836 -29.99414,0 0,-10.56836 z"
       id="rect3336"
       inkscape:connector-curvature="0" />
    <path
       style="color:#000000;clip-rule:nonzero;display:inline;overflow:visible;visibility:visible;opacity:1;isolation:auto;mix-blend-mode:normal;color-interpolation:sRGB;color-interpolation-filters:linearRGB;solid-color:#000000;solid-opacity:1;fill:none;fill-opacity:1;fill-rule:nonzero;stroke:#000000;stroke-width:0.70866144;stroke-linecap:butt;stroke-linejoin:miter;stroke-miterlimit:4;stroke-dasharray:none;stroke-dashoffset:0;stroke-opacity:1;color-rendering:auto;image-rendering:auto;shape-rendering:auto;text-rendering:auto;enable-background:accumulate"
       d="m 71.07617,701.49638 0,10.74805 -28.035156,0 0,16.19922 10.613281,0 0,27.88867 -10.613281,0 0,16.13672 28.101562,0 0,10.81055 31.511714,0 0,-10.75782 27.89063,0 0,10.75782 31.55664,0 0,-10.76563 27.91016,0 0,10.76563 31.55859,0 0,-10.75391 27.88477,0 0,10.75391 31.57422,0 0,-10.75 28.04492,0 0,-16.18164 -10.62891,0 0,-27.91992 10.62891,0 0,-16.20118 -28.02149,0 0,-10.73047 -31.58789,0 0,10.76368 -27.90234,0 0,-10.76368 -31.57031,0 0,10.7461 -27.86915,0 0,-10.7461 -31.57226,0 0,10.75977 -27.89844,0 0,-10.75977 z"
       id="rect3336-5"
       inkscape:connector-curvature="0" />
    <path
       style="color:#000000;clip-rule:nonzero;display:inline;overflow:visible;visibility:visible;opacity:1;isolation:auto;mix-blend-mode:normal;color-interpolation:sRGB;color-interpolation-filters:linearRGB;solid-color:#000000;solid-opacity:1;fill:none;fill-opacity:1;fill-rule:nonzero;stroke:#000000;stroke-width:0.70866144;stroke-linecap:butt;stroke-linejoin:miter;stroke-miterlimit:4;stroke-dasharray:none;stroke-dashoffset:0;stroke-opacity:1;color-rendering:auto;image-rendering:auto;shape-rendering:auto;text-rendering:auto;enable-background:accumulate"
       d="m 551.89063,728.2892 -10.64063,0 0,-14.78515 -23.26367,0 0,-11.28711 -31.8789,0 0,10.62304 -33.92383,0 0,-10.62304 -31.53711,0 0,10.62304 -33.92578,0 0,-10.62304 -31.22852,0 0,11.27929 -23.22656,0 0,14.79883 -10.67773,0 0,29.31836 10.67578,0 0,14.69531 23.22266,0 0,11.67969 31.56446,0 0,-10.63086 33.92578,0 0,10.63086 31.53711,0 0,-10.63086 33.92578,0 0,10.63086 31.2207,0 0,-11.67383 23.56445,0 0,-14.70508 10.66602,0 0,-29.32031 z m 0,55.69336 -0.33789,0 0,0.006 0.33789,0 z"
       id="rect4191"
       inkscape:connector-curvature="0" />
    <path
       inkscape:connector-curvature="0"
       style="color:#000000;clip-rule:nonzero;display:inline;overflow:visible;visibility:visible;opacity:1;isolation:auto;mix-blend-mode:normal;color-interpolation:sRGB;color-interpolation-filters:linearRGB;solid-color:#000000;solid-opacity:1;fill:none;fill-opacity:1;fill-rule:nonzero;stroke:#000000;stroke-width:0.70866144;stroke-linecap:butt;stroke-linejoin:miter;stroke-miterlimit:4;stroke-dasharray:none;stroke-dashoffset:0;stroke-opacity:1;color-rendering:auto;image-rendering:auto;shape-rendering:auto;text-rendering:auto;enable-background:accumulate"
       d="m 71.076173,611.00451 0,10.74805 -28.03516,0 0,16.19922 10.61328,0 0,27.88867 -10.61328,0 0,16.13672 28.10156,0 0,10.81055 31.511717,0 0,-10.75782 27.89063,0 0,10.75782 31.55664,0 0,-10.76563 27.91016,0 0,10.76563 31.55859,0 0,-10.75391 27.88477,0 0,10.75391 31.57422,0 0,-10.75 28.04492,0 0,-16.18164 -10.62891,0 0,-27.91992 10.62891,0 0,-16.20118 -28.02149,0 0,-10.73047 -31.58789,0 0,10.76368 -27.90234,0 0,-10.76368 -31.57031,0 0,10.7461 -27.86915,0 0,-10.7461 -31.57226,0 0,10.75977 -27.89844,0 0,-10.75977 z"
       id="rect3336-5-6" />
    <path
       inkscape:connector-curvature="0"
       style="color:#000000;clip-rule:nonzero;display:inline;overflow:visible;visibility:visible;opacity:1;isolation:auto;mix-blend-mode:normal;color-interpolation:sRGB;color-interpolation-filters:linearRGB;solid-color:#000000;solid-opacity:1;fill:none;fill-opacity:1;fill-rule:nonzero;stroke:#000000;stroke-width:0.70866144;stroke-linecap:butt;stroke-linejoin:miter;stroke-miterlimit:4;stroke-dasharray:none;stroke-dashoffset:0;stroke-opacity:1;color-rendering:auto;image-rendering:auto;shape-rendering:auto;text-rendering:auto;enable-background:accumulate"
       d="m 319.64064,791.98842 0,34.68946 10.57618,0 0,30.01172 -10.57618,0 0,35.4414 10.58594,0 0,30.03125 -10.58594,0 0,35.45117 10.56641,0 0,29.99219 -10.56641,0 0,34.69919 28.70118,0 0,-10.5488 29.9746,0 0,10.5488 29.53516,0 0,-10.4941 29.86914,0 0,10.4941 29.48633,0 0,-10.5977 30.07227,0 0,10.5977 29.40429,0 0,-10.5879 30.03125,0 0,10.5879 28.67383,0 0,-34.67966 -10.58789,0 0,-30.03125 10.58789,0 0,-35.4414 -10.57617,0 0,-30.01172 10.57617,0 0,-35.44141 -10.58789,0 0,-30.03125 10.58789,0 0,-34.67969 -28.63086,0 0,10.61914 -30.11719,0 0,-10.61914 -29.33984,0 0,10.62891 -30.11719,0 0,-10.62891 -29.33984,0 0,10.63086 -30.11719,0 0,-10.63086 -29.40039,0 0,10.56836 -29.99414,0 0,-10.56836 z"
       id="rect3336-51" />
    <path
       style="color:#000000;clip-rule:nonzero;display:inline;overflow:visible;visibility:visible;opacity:1;isolation:auto;mix-blend-mode:normal;color-interpolation:sRGB;color-interpolation-filters:linearRGB;solid-color:#000000;solid-opacity:1;fill:none;fill-opacity:1;fill-rule:nonzero;stroke:#000000;stroke-width:0.70866144;stroke-linecap:butt;stroke-linejoin:miter;stroke-miterlimit:4;stroke-dasharray:none;stroke-dashoffset:0;stroke-opacity:1;color-rendering:auto;image-rendering:auto;shape-rendering:auto;text-rendering:auto;enable-background:accumulate"
       d="m 551.56054,638.51772 -10.64063,0 0,-14.78515 -23.26367,0 0,-11.28711 -31.8789,0 0,10.62304 -33.92383,0 0,-10.62304 -31.53711,0 0,10.62304 -33.92578,0 0,-10.62304 -31.22852,0 0,11.27929 -23.22656,0 0,14.79883 -10.67773,0 0,29.31836 10.67578,0 0,14.69531 23.22266,0 0,11.67969 31.56446,0 0,-10.63086 33.92578,0 0,10.63086 31.53711,0 0,-10.63086 33.92578,0 0,10.63086 31.2207,0 0,-11.67383 23.56445,0 0,-14.70508 10.66602,0 0,-29.32031 z m 0,55.69336 -0.33789,0 0,0.006 0.33789,0 z"
       id="rect4191-5"
       inkscape:connector-curvature="0" />
    <rect
       style="fill:none;stroke:#000000;stroke-width:0.70866144;stroke-miterlimit:4;stroke-dasharray:none;stroke-opacity:1"
       id="rect21"
       width="42.521782"
       height="38.624142"
       x="366.69061"
       y="723.94861"
       ry="0" />
    <rect
       style="display:inline;fill:none;stroke:#000000;stroke-width:0.70866144;stroke-miterlimit:4;stroke-dasharray:none;stroke-opacity:1"
       id="rect21-2"
       width="31.546291"
       height="38.632904"
       x="496.27173"
       y="724.77789"
       ry="0" />
    <rect
       style="fill:none;stroke:#000000;stroke-width:0.70866144;stroke-miterlimit:4;stroke-dasharray:none;stroke-opacity:1"
       id="rect851"
       width="161.5224"
       height="13.76649"
       x="405.09903"
       y="809.74677" />
    <rect
       style="display:inline;fill:none;stroke:#000000;stroke-width:0.70866144;stroke-miterlimit:4;stroke-dasharray:none;stroke-opacity:1"
       id="rect851-2"
       width="137.20164"
       height="13.820732"
       x="429.46167"
       y="988.95184" />
  </g>
</svg>
